<svg width="26" height="20" viewBox="0 0 26 20" fill="none" xmlns="http://www.w3.org/2000/svg">
<path d="M23.2564 20H16.641C16.641 19.6667 16.6297 19.3333 16.607 19C16.5844 18.6667 16.5504 18.3334 16.5051 18H23.2564C23.376 18 23.4743 17.9616 23.5513 17.8846C23.6282 17.8077 23.6667 17.7094 23.6667 17.5897V2.41033C23.6667 2.29066 23.6282 2.19236 23.5513 2.11543C23.4743 2.03849 23.376 2.00003 23.2564 2.00003H2.74364C2.62397 2.00003 2.52567 2.03849 2.44874 2.11543C2.37181 2.19236 2.33334 2.29066 2.33334 2.41033V3.82826C2.00001 3.78295 1.66669 3.74897 1.33337 3.72633C1.00004 3.70368 0.666707 3.69236 0.333374 3.69236V2.41033C0.333374 1.74751 0.569385 1.1801 1.04141 0.708095C1.51341 0.236073 2.08082 6.10352e-05 2.74364 6.10352e-05H23.2564C23.9192 6.10352e-05 24.4866 0.236073 24.9586 0.708095C25.4306 1.1801 25.6666 1.74751 25.6666 2.41033V17.5897C25.6666 18.2526 25.4306 18.82 24.9586 19.292C24.4866 19.764 23.9192 20 23.2564 20ZM0.333374 20V16.718C1.23935 16.718 2.01285 17.0385 2.65387 17.6795C3.29487 18.3205 3.61537 19.094 3.61537 20H0.333374ZM6.53847 20C6.53847 18.2838 5.93335 16.8248 4.72311 15.6231C3.51286 14.4214 2.04962 13.812 0.333374 13.7949V11.7949C2.61713 11.7949 4.55557 12.591 6.14871 14.1832C7.74186 15.7754 8.53844 17.7143 8.53844 20H6.53847ZM11.718 20C11.718 18.4205 11.4184 16.941 10.8192 15.5615C10.2201 14.1821 9.4073 12.9791 8.38081 11.9526C7.3543 10.9261 6.15132 10.1133 4.77187 9.51413C3.39241 8.91497 1.91291 8.6154 0.333374 8.6154V6.61546C2.18466 6.61546 3.92082 6.965 5.54184 7.66406C7.16286 8.36313 8.58126 9.32055 9.79704 10.5363C11.0128 11.7521 11.9702 13.1705 12.6693 14.7915C13.3684 16.4125 13.7179 18.1487 13.7179 20H11.718Z" fill="white"/>
</svg>
