<?xml version="1.0" encoding="UTF-8"?>
<!DOCTYPE svg PUBLIC "-//W3C//DTD SVG 1.1//EN" "http://www.w3.org/Graphics/SVG/1.1/DTD/svg11.dtd">
<!-- Creator: CorelDRAW 2020 (64-Bit) -->
<svg xmlns="http://www.w3.org/2000/svg" xml:space="preserve" width="28.1058mm" height="8.4666mm" version="1.1" style="shape-rendering:geometricPrecision; text-rendering:geometricPrecision; image-rendering:optimizeQuality; fill-rule:evenodd; clip-rule:evenodd"
viewBox="0 0 21.6268 6.5149"
 xmlns:xlink="http://www.w3.org/1999/xlink"
 xmlns:xodm="http://www.corel.com/coreldraw/odm/2003">
 <defs>
  <style type="text/css">
   <![CDATA[
    .str0 {stroke:white;stroke-width:0.2443;stroke-miterlimit:22.9256}
    .fil0 {fill:red;fill-rule:nonzero}
    .fil1 {fill:white;fill-rule:nonzero}
   ]]>
  </style>
 </defs>
 <g id="Capa_x0020_1">
  <metadata id="CorelCorpID_0Corel-Layer"/>
  <path class="fil0" d="M3.3063 6.5149c1.826,0 3.3063,-1.4584 3.3063,-3.2574 0,-1.799 -1.4802,-3.2574 -3.3063,-3.2574 -1.826,0 -3.3063,1.4584 -3.3063,3.2574 0,1.799 1.4802,3.2574 3.3063,3.2574z"/>
  <path class="fil0 str0" d="M3.3063 5.2119c1.0957,0 1.9838,-0.8751 1.9838,-1.9545 0,-1.0794 -0.8881,-1.9545 -1.9838,-1.9545 -1.0956,0 -1.9838,0.8751 -1.9838,1.9545 0,1.0794 0.8882,1.9545 1.9838,1.9545z"/>
  <path class="fil1" d="M2.7818 4.1986l1.7175 -0.962 -1.7175 -0.9626 0 1.9246zm7.5163 -1.6024c-0.1571,0.7744 -0.2766,1.7199 -0.3393,2.1102l-0.0442 0c-0.0508,-0.4023 -0.1702,-1.3415 -0.3331,-2.1038l-0.4026 -1.8971 -1.2269 0 0 5.1169 0.7609 0 0 -4.2184 0.0752 0.3938 0.7736 3.8238 0.7612 0 0.7609 -3.8238 0.0814 -0.3961 0 4.2204 0.7612 0 0 -5.117 -1.2386 0 -0.3896 1.891zm3.6855 2.4577c-0.0695,0.1404 -0.2199,0.2378 -0.3714,0.2378 -0.1759,0 -0.2454,-0.134 -0.2454,-0.4631l0 -2.745 -0.8681 0 0 2.7933c0,0.6895 0.2324,1.006 0.7487,1.006 0.3518,0 0.6347,-0.1526 0.8301,-0.5182l0.0189 0 0.0753 0.4571 0.6791 0 0 -3.7379 -0.8681 0 0 2.9697 0.0008 0.0002zm2.5468 -1.4946c-0.2832,-0.2014 -0.4591,-0.3355 -0.4591,-0.6281 0,-0.2071 0.1004,-0.323 0.3393,-0.323 0.2456,0 0.3273,0.1642 0.333,0.7258l0.73 -0.0301c0.0564,-0.9083 -0.2519,-1.2867 -1.0506,-1.2867 -0.7419,0 -1.107,0.323 -1.107,0.9875 0,0.6037 0.3021,0.8781 0.7926,1.2384 0.4216,0.3173 0.667,0.494 0.667,0.7502 0,0.1954 -0.126,0.3293 -0.3461,0.3293 -0.2579,0 -0.4091,-0.2381 -0.3706,-0.6529l-0.7356 0.012c-0.1137,0.7742 0.2079,1.2255 1.0627,1.2255 0.7487,0 1.1388,-0.3355 1.1388,-1.0059 -0.0008,-0.61 -0.3149,-0.8543 -0.9946,-1.3421zm2.3019 -1.4756l-0.8303 0 0 3.738 0.8307 0 0 -3.7377 -0.0003 -0.0003zm-0.4091 -1.4762c-0.3203,0 -0.4718,0.1159 -0.4718,0.5188 0,0.4147 0.1504,0.5182 0.472,0.5182 0.3271,0 0.4718,-0.104 0.4718,-0.5182 0,-0.3839 -0.1447,-0.5188 -0.4721,-0.5188zm3.2013 3.8666l-0.7609 -0.0366c0,0.6585 -0.0753,0.8719 -0.3329,0.8719 -0.2579,0 -0.3021,-0.2381 -0.3021,-1.0126l0 -0.7248c0,-0.7505 0.0508,-0.9879 0.3086,-0.9879 0.2388,0 0.3019,0.2253 0.3019,0.9211l0.7541 -0.0483c0.0508,-0.5793 -0.0252,-0.9759 -0.2576,-1.2012 -0.1702,-0.1651 -0.4278,-0.2435 -0.7861,-0.2435 -0.8426,0 -1.1887,0.4392 -1.1887,1.6705l0 0.5245c0,1.2685 0.2953,1.6771 1.1574,1.6771 0.3649,0 0.6162,-0.0733 0.7862,-0.2318 0.2448,-0.221 0.3387,-0.5986 0.32,-1.1784z"/>
 </g>
</svg>
